<?xml version="1.0" encoding="utf-8"?>
<svg viewBox="0 0 300 87" xmlns="http://www.w3.org/2000/svg" xmlns:bx="https://boxy-svg.com" width="300px" height="87px"><defs><bx:export><bx:file format="svg"/></bx:export></defs><g id="svgGroup" stroke-linecap="round" fill-rule="evenodd" font-size="9pt" stroke="#000" stroke-width="0.25mm" fill="#000" style="stroke: rgb(0, 0, 0); stroke-width: 0.25mm; fill: rgb(0, 0, 0); transform-origin: 155.001px 32.5009px;" transform="matrix(0.64516043663, 0, 0, 0.645162582397, 38.767749175468, -4.078689109189)"><path d="M 55.417 9.237 L 53.126 18.82 A 23.976 23.976 0 0 0 44.549 10.591 A 23.488 23.488 0 0 0 32.652 7.501 A 29.019 29.019 0 0 0 32.64 7.501 A 24.067 24.067 0 0 0 23.827 9.093 A 22.667 22.667 0 0 0 20.244 10.869 Q 14.723 14.237 11.459 19.897 A 24.629 24.629 0 0 0 8.202 31.853 A 29.174 29.174 0 0 0 8.195 32.501 A 24.902 24.902 0 0 0 11.424 45.001 Q 14.654 50.695 20.174 54.098 A 23.051 23.051 0 0 0 32.115 57.497 A 27.511 27.511 0 0 0 32.57 57.501 A 29.074 29.074 0 0 0 38.638 56.882 A 26.531 26.531 0 0 0 39.966 56.563 A 25.608 25.608 0 0 0 45.464 54.413 A 23.499 23.499 0 0 0 46.39 53.89 L 46.39 37.501 L 29.167 37.501 L 29.167 30.417 L 54.029 30.417 L 54.029 57.917 Q 49.792 61.459 44.202 63.23 A 38.287 38.287 0 0 1 32.57 65.001 A 32.194 32.194 0 0 1 21.446 63.095 A 30.615 30.615 0 0 1 19.862 62.466 A 32.894 32.894 0 0 1 9.48 55.452 Q 5.001 50.973 2.501 45.105 A 31.718 31.718 0 0 1 0.003 32.921 A 36.086 36.086 0 0 1 0.001 32.501 A 31.51 31.51 0 0 1 2.36 20.31 A 30.544 30.544 0 0 1 2.536 19.897 A 33.005 33.005 0 0 1 9.549 9.549 A 32.894 32.894 0 0 1 19.931 2.536 A 31.751 31.751 0 0 1 32.189 0.004 A 36.306 36.306 0 0 1 32.64 0.001 A 31.777 31.777 0 0 1 45.14 2.466 A 33.204 33.204 0 0 1 55.417 9.237 Z M 142.431 63.751 L 121.945 63.751 L 121.945 1.251 L 142.431 1.251 A 43.577 43.577 0 0 1 149.66 1.821 A 31.463 31.463 0 0 1 157.188 4.029 A 32.174 32.174 0 0 1 163.878 7.962 A 27.377 27.377 0 0 1 167.57 11.39 A 31.022 31.022 0 0 1 173.681 21.494 A 32.6 32.6 0 0 1 175.612 30.271 A 30.02 30.02 0 0 1 175.695 32.501 A 31.597 31.597 0 0 1 174.041 42.473 A 36.122 36.122 0 0 1 173.681 43.508 A 31.022 31.022 0 0 1 167.57 53.612 A 28.618 28.618 0 0 1 160.194 59.471 A 34.847 34.847 0 0 1 157.188 60.973 A 31.463 31.463 0 0 1 149.66 63.18 A 43.577 43.577 0 0 1 142.431 63.751 Z M 219.029 27.57 L 219.029 22.084 L 225.973 22.084 L 225.973 63.751 L 219.029 63.751 L 219.029 58.265 Q 216.251 61.042 212.466 62.674 A 20.212 20.212 0 0 1 204.376 64.306 A 19.611 19.611 0 0 1 193.959 61.424 Q 189.237 58.542 186.424 53.681 Q 183.612 48.82 183.612 42.917 Q 183.612 37.015 186.424 32.154 Q 189.237 27.292 193.959 24.411 A 19.611 19.611 0 0 1 204.376 21.529 A 20.592 20.592 0 0 1 212.466 23.126 Q 216.251 24.723 219.029 27.57 Z M 303.056 27.57 L 303.056 22.084 L 310.001 22.084 L 310.001 63.751 L 303.056 63.751 L 303.056 58.265 Q 300.279 61.042 296.494 62.674 A 20.212 20.212 0 0 1 288.404 64.306 A 19.611 19.611 0 0 1 277.987 61.424 Q 273.265 58.542 270.452 53.681 Q 267.64 48.82 267.64 42.917 Q 267.64 37.015 270.452 32.154 Q 273.265 27.292 277.987 24.411 A 19.611 19.611 0 0 1 288.404 21.529 A 20.592 20.592 0 0 1 296.494 23.126 Q 300.279 24.723 303.056 27.57 Z M 100.973 63.751 L 93.473 63.751 L 93.473 28.334 L 84.029 28.334 L 84.029 22.084 L 93.681 22.084 L 93.681 8.195 L 100.765 8.195 L 100.765 22.084 L 111.112 22.084 L 111.112 28.334 L 100.973 28.334 L 100.973 63.751 Z M 251.667 63.751 L 244.167 63.751 L 244.167 28.334 L 234.723 28.334 L 234.723 22.084 L 244.376 22.084 L 244.376 8.195 L 251.459 8.195 L 251.459 22.084 L 261.806 22.084 L 261.806 28.334 L 251.667 28.334 L 251.667 63.751 Z M 129.862 8.334 L 129.862 56.667 L 141.598 56.667 Q 148.82 56.667 153.751 54.411 A 24.746 24.746 0 0 0 158.46 51.621 A 20.284 20.284 0 0 0 161.737 48.508 A 23.727 23.727 0 0 0 165.473 42.451 A 21.976 21.976 0 0 0 166.147 40.626 A 29.116 29.116 0 0 0 167.26 35.844 A 23.833 23.833 0 0 0 167.501 32.501 A 24.869 24.869 0 0 0 166.918 27.247 A 30.724 30.724 0 0 0 166.147 24.376 A 22.968 22.968 0 0 0 162.295 17.183 A 26.395 26.395 0 0 0 161.737 16.494 Q 158.681 12.848 153.751 10.591 Q 148.82 8.334 141.598 8.334 L 129.862 8.334 Z M 75.279 63.751 L 67.779 63.751 L 67.779 22.084 L 75.279 22.084 L 75.279 63.751 Z M 205.348 57.501 A 13.483 13.483 0 0 0 212.536 55.522 A 14.775 14.775 0 0 0 217.674 50.244 Q 219.584 46.945 219.584 42.917 A 14.641 14.641 0 0 0 218.487 37.232 A 14.058 14.058 0 0 0 217.674 35.591 Q 215.765 32.292 212.536 30.313 A 13.483 13.483 0 0 0 205.348 28.334 A 13.483 13.483 0 0 0 198.161 30.313 A 14.775 14.775 0 0 0 193.022 35.591 Q 191.112 38.89 191.112 42.917 A 14.641 14.641 0 0 0 192.209 48.603 A 14.058 14.058 0 0 0 193.022 50.244 Q 194.931 53.542 198.161 55.522 A 13.483 13.483 0 0 0 205.348 57.501 Z M 289.376 57.501 A 13.483 13.483 0 0 0 296.563 55.522 A 14.775 14.775 0 0 0 301.702 50.244 Q 303.612 46.945 303.612 42.917 A 14.641 14.641 0 0 0 302.515 37.232 A 14.058 14.058 0 0 0 301.702 35.591 Q 299.792 32.292 296.563 30.313 A 13.483 13.483 0 0 0 289.376 28.334 A 13.483 13.483 0 0 0 282.188 30.313 A 14.775 14.775 0 0 0 277.049 35.591 Q 275.14 38.89 275.14 42.917 A 14.641 14.641 0 0 0 276.236 48.603 A 14.058 14.058 0 0 0 277.049 50.244 Q 278.959 53.542 282.188 55.522 A 13.483 13.483 0 0 0 289.376 57.501 Z M 68.033 13.171 A 4.817 4.817 0 0 0 71.529 14.584 A 6.256 6.256 0 0 0 71.662 14.583 A 4.765 4.765 0 0 0 75.105 13.126 A 5.009 5.009 0 0 0 76.053 11.784 A 5.036 5.036 0 0 0 76.529 9.584 Q 76.529 7.431 75.105 6.008 A 4.716 4.716 0 0 0 73.38 4.894 A 5.339 5.339 0 0 0 71.529 4.584 A 4.882 4.882 0 0 0 67.987 6.008 Q 66.529 7.431 66.529 9.584 A 5.912 5.912 0 0 0 66.529 9.649 A 4.815 4.815 0 0 0 67.987 13.126 A 5.739 5.739 0 0 0 68.033 13.171 Z" vector-effect="non-scaling-stroke"/></g><path fill="#ffffff" d="M 41.53 0.803 L 47.106 0.803 C 48.851 1.052 50.585 1.33 52.308 1.636 C 68.611 4.569 80.962 17.123 85.356 32.661 C 85.645 33.681 86.076 36.276 86.648 40.447 L 86.648 46.244 C 84.608 63.867 75.683 76.045 59.873 82.777 C 56.269 84.307 51.977 85.315 46.996 85.803 L 41.207 85.803 C 24.915 84.012 13.168 76.059 5.966 61.944 C 3.637 57.376 2.198 52.109 1.648 46.142 L 1.648 40.362 C 2.271 33.647 4.096 27.685 7.122 22.478 C 14.642 9.541 26.111 2.316 41.53 0.803 Z M 77.961 45.309 C 78.012 47.099 77.834 48.831 77.426 50.503 C 74.473 62.595 67.466 70.931 56.405 75.51 C 49.288 78.456 42.193 78.904 35.121 76.853 C 22.275 73.13 14.115 64.777 10.641 51.795 C 9.647 48.089 9.613 42.827 9.961 39.495 C 10.55 33.907 12.52 28.802 15.869 24.178 C 24.955 11.641 39.796 6.549 54.79 11.292 C 55.096 11.388 55.292 11.59 55.377 11.896 C 56.082 14.556 58.989 15.695 61.148 13.842 C 64.336 11.105 60.953 6.77 57.638 7.952 C 56.924 8.207 56.448 8.861 55.742 9.159 C 55.53 9.25 55.289 9.257 55.071 9.176 C 52.606 8.275 49.888 7.722 46.919 7.518 C 36.124 6.781 26.904 9.903 19.26 16.885 C 10.856 24.557 6.966 34.389 7.59 46.38 C 8.397 61.952 20.093 75.671 35.189 79.156 C 40.975 80.493 46.542 80.521 51.892 79.241 C 57.485 77.898 62.423 75.515 66.707 72.093 C 75.315 65.213 79.871 55.843 80.375 43.983 C 80.404 43.253 79.823 42.644 79.092 42.64 L 59.788 42.598 C 59.331 42.592 58.9 42.383 58.615 42.028 C 56.839 39.776 53.677 39.351 52.24 42.156 C 50.668 45.199 53.745 48.148 56.822 47.009 C 58.377 46.423 58.284 44.748 60.281 44.774 C 65.931 44.847 71.634 44.842 77.392 44.757 C 77.766 44.757 77.955 44.94 77.961 45.309 Z M 70.643 50.936 C 71.164 50.936 71.34 51.183 71.17 51.676 C 68.387 59.768 63.418 65.61 56.261 69.203 C 44.998 74.864 31.866 72.314 23.23 63.312 C 13.854 53.554 12.86 37.948 20.96 27.06 C 25.199 21.37 30.817 17.723 37.816 16.12 C 45.137 14.442 52.135 15.624 58.811 19.665 C 59.035 19.8 59.166 20.049 59.151 20.311 C 58.921 24.416 64.149 25.878 65.985 22.036 C 67.353 19.18 63.571 16.333 60.978 17.786 C 60.627 17.978 60.275 17.976 59.924 17.778 C 51.758 13.052 43.247 12.066 34.39 14.82 C 17.331 20.115 8.015 40.209 16.183 56.725 C 29.163 82.981 66.877 78.952 73.703 50.137 C 73.844 49.538 73.388 48.962 72.768 48.956 C 64.098 48.871 55.323 48.808 46.443 48.769 C 45.457 48.769 44.964 48.123 44.25 47.562 C 40.043 44.264 35.759 51.999 41.335 53.767 C 43.485 54.455 44.607 52.993 45.806 51.361 C 45.981 51.123 46.216 51.004 46.511 51.004 L 70.643 50.936 Z M 60.553 57.957 C 60.827 57.957 61.003 58.248 60.87 58.481 C 60.856 58.507 60.838 58.531 60.817 58.552 C 56.482 63.125 50.506 66.313 44.114 66.372 C 32.784 66.474 22.626 57.719 21.7 46.287 C 20.535 32.058 30.489 21.399 44.641 21.322 C 45.009 21.322 45.256 21.495 45.381 21.841 C 46.664 25.36 51.161 25.249 52.232 21.509 C 52.566 20.353 52.365 19.404 51.628 18.662 C 49.701 16.695 47.797 16.709 45.916 18.704 C 45.701 18.936 45.437 19.075 45.126 19.121 C 44.332 19.234 43.533 19.285 42.729 19.274 C 36.651 19.189 30.268 22.351 26.298 26.507 C 20.864 32.179 18.504 38.781 19.218 46.312 C 19.991 54.506 25.372 62.309 32.852 65.913 C 44.276 71.413 56.983 67.639 64.412 57.447 C 64.724 57.022 64.67 56.651 64.251 56.334 L 64.03 56.172 C 63.853 56.039 63.639 55.968 63.418 55.968 L 53.549 55.977 C 53.136 55.976 52.754 55.767 52.538 55.424 C 50.829 52.738 47.514 51.982 45.848 55.186 C 43.834 59.045 49.631 62.547 52.232 58.425 C 52.369 58.206 52.609 58.072 52.869 58.068 L 60.553 57.957 Z" transform="matrix(1, 0, 0, 1, 1.7763568394002505e-15, 0)"/><path fill="#104c6b" d="M 77.392 44.757 C 71.634 44.842 65.931 44.847 60.281 44.774 C 58.284 44.748 58.377 46.423 56.822 47.009 C 53.745 48.148 50.668 45.199 52.24 42.156 C 53.677 39.351 56.839 39.776 58.615 42.028 C 58.9 42.383 59.331 42.592 59.788 42.598 L 79.092 42.64 C 79.823 42.644 80.404 43.253 80.375 43.983 C 79.871 55.843 75.315 65.213 66.707 72.093 C 62.423 75.515 57.485 77.898 51.892 79.241 C 46.542 80.521 40.975 80.493 35.189 79.156 C 20.093 75.671 8.397 61.952 7.59 46.38 C 6.966 34.389 10.856 24.557 19.26 16.885 C 26.904 9.903 36.124 6.781 46.919 7.518 C 49.888 7.722 52.606 8.275 55.071 9.176 C 55.289 9.257 55.53 9.25 55.742 9.159 C 56.448 8.861 56.924 8.207 57.638 7.952 C 60.953 6.77 64.336 11.105 61.148 13.842 C 58.989 15.695 56.082 14.556 55.377 11.896 C 55.292 11.59 55.096 11.388 54.79 11.292 C 39.796 6.549 24.955 11.641 15.869 24.178 C 12.52 28.802 10.55 33.907 9.961 39.495 C 9.613 42.827 9.647 48.089 10.641 51.795 C 14.115 64.777 22.275 73.13 35.121 76.853 C 42.193 78.904 49.288 78.456 56.405 75.51 C 67.466 70.931 74.473 62.595 77.426 50.503 C 77.834 48.831 78.012 47.099 77.961 45.309 C 77.955 44.94 77.766 44.757 77.392 44.757 Z M 60.681 11.335 C 60.681 10.339 59.874 9.533 58.879 9.533 C 57.883 9.533 57.077 10.339 57.077 11.335 C 57.077 12.33 57.883 13.137 58.879 13.137 C 59.874 13.137 60.681 12.33 60.681 11.335 Z M 57.315 43.779 C 57.315 42.784 56.508 41.977 55.513 41.977 C 54.517 41.977 53.711 42.784 53.711 43.779 C 53.711 44.774 54.517 45.581 55.513 45.581 C 56.508 45.581 57.315 44.774 57.315 43.779 Z" transform="matrix(1, 0, 0, 1, 1.7763568394002505e-15, 0)"/><circle fill="#ffffff" cx="58.878" cy="11.334" r="1.802" transform="matrix(1, 0, 0, 1, 1.7763568394002505e-15, 0)"/><path fill="#1484b7" d="M 70.643 50.936 L 46.511 51.004 C 46.216 51.004 45.981 51.123 45.806 51.361 C 44.607 52.993 43.485 54.455 41.335 53.767 C 35.759 51.999 40.043 44.264 44.25 47.562 C 44.964 48.123 45.457 48.769 46.443 48.769 C 55.323 48.808 64.098 48.871 72.768 48.956 C 73.388 48.962 73.844 49.538 73.703 50.137 C 66.877 78.952 29.163 82.981 16.183 56.725 C 8.015 40.209 17.331 20.115 34.39 14.82 C 43.247 12.066 51.758 13.052 59.924 17.778 C 60.275 17.976 60.627 17.978 60.978 17.786 C 63.571 16.333 67.353 19.18 65.985 22.036 C 64.149 25.878 58.921 24.416 59.151 20.311 C 59.166 20.049 59.035 19.8 58.811 19.665 C 52.135 15.624 45.137 14.442 37.816 16.12 C 30.817 17.723 25.199 21.37 20.96 27.06 C 12.86 37.948 13.854 53.554 23.23 63.312 C 31.866 72.314 44.998 74.864 56.261 69.203 C 63.418 65.61 68.387 59.768 71.17 51.676 C 71.34 51.183 71.164 50.936 70.643 50.936 Z M 64.506 20.702 C 64.506 19.687 63.684 18.866 62.67 18.866 C 61.655 18.866 60.834 19.687 60.834 20.702 C 60.834 21.716 61.655 22.538 62.67 22.538 C 63.684 22.538 64.506 21.716 64.506 20.702 Z M 44.089 50.333 C 44.089 49.332 43.278 48.522 42.278 48.522 C 41.278 48.522 40.468 49.332 40.468 50.333 C 40.468 51.332 41.278 52.143 42.278 52.143 C 43.278 52.143 44.089 51.332 44.089 50.333 Z" transform="matrix(1, 0, 0, 1, 1.7763568394002505e-15, 0)"/><path fill="#104c6b" d="M 60.553 57.957 L 52.869 58.068 C 52.609 58.072 52.369 58.206 52.232 58.425 C 49.631 62.547 43.834 59.045 45.848 55.186 C 47.514 51.982 50.829 52.738 52.538 55.424 C 52.754 55.767 53.136 55.976 53.549 55.977 L 63.418 55.968 C 63.639 55.968 63.853 56.039 64.03 56.172 L 64.251 56.334 C 64.67 56.651 64.724 57.022 64.412 57.447 C 56.983 67.639 44.276 71.413 32.852 65.913 C 25.372 62.309 19.991 54.506 19.218 46.312 C 18.504 38.781 20.864 32.179 26.298 26.507 C 30.268 22.351 36.651 19.189 42.729 19.274 C 43.533 19.285 44.332 19.234 45.126 19.121 C 45.437 19.075 45.701 18.936 45.916 18.704 C 47.797 16.709 49.701 16.695 51.628 18.662 C 52.365 19.404 52.566 20.353 52.232 21.509 C 51.161 25.249 46.664 25.36 45.381 21.841 C 45.256 21.495 45.009 21.322 44.641 21.322 C 30.489 21.399 20.535 32.058 21.7 46.287 C 22.626 57.719 32.784 66.474 44.114 66.372 C 50.506 66.313 56.482 63.125 60.817 58.552 C 61.005 58.36 60.909 58.036 60.643 57.968 C 60.613 57.96 60.584 57.957 60.553 57.957 Z M 50.566 20.829 C 50.566 19.838 49.762 19.036 48.772 19.036 C 47.782 19.036 46.979 19.838 46.979 20.829 C 46.979 21.819 47.782 22.623 48.772 22.623 C 49.762 22.623 50.566 21.819 50.566 20.829 Z M 50.872 56.708 C 50.872 55.731 50.08 54.94 49.104 54.94 C 48.127 54.94 47.336 55.731 47.336 56.708 C 47.336 57.684 48.127 58.476 49.104 58.476 C 50.08 58.476 50.872 57.684 50.872 56.708 Z" transform="matrix(1, 0, 0, 1, 1.7763568394002505e-15, 0)"/><circle fill="#ffffff" cx="62.67" cy="20.702" r="1.836" transform="matrix(1, 0, 0, 1, 1.7763568394002505e-15, 0)"/><circle fill="#ffffff" cx="48.772" cy="20.829" r="1.793" transform="matrix(1, 0, 0, 1, 1.7763568394002505e-15, 0)"/><circle fill="#ffffff" cx="55.512" cy="43.779" r="1.802" transform="matrix(1, 0, 0, 1, 1.7763568394002505e-15, 0)"/><circle fill="#ffffff" cx="42.278" cy="50.333" r="1.811" transform="matrix(1, 0, 0, 1, 1.7763568394002505e-15, 0)"/><circle fill="#ffffff" cx="49.104" cy="56.708" r="1.768" transform="matrix(1, 0, 0, 1, 1.7763568394002505e-15, 0)"/><g id="g-2" stroke-linecap="round" fill-rule="evenodd" font-size="9pt" stroke="#1b86b9" stroke-width="0.25mm" fill="#1b86b9" style="stroke:#1b86b9;stroke-width:0.25mm;fill:#1b86b9" transform="matrix(0.877026, 0, 0, 0.877026, 93.800004, 50.000001)"><path d="M 3.958 33.333 L 0 33.333 L 0 2.083 L 7.847 2.083 A 12.367 12.367 0 0 1 10.27 2.309 A 9.028 9.028 0 0 1 12.917 3.264 A 9.054 9.054 0 0 1 15.262 5.109 A 8.267 8.267 0 0 1 16.198 6.372 Q 17.361 8.299 17.361 10.59 A 7.771 7.771 0 0 1 15.903 15.208 A 8.377 8.377 0 0 1 12.385 18.033 A 10.268 10.268 0 0 1 11.91 18.229 L 22.396 33.333 L 17.778 33.333 L 7.847 18.958 L 3.958 18.958 L 3.958 33.333 Z M 149.549 30.59 L 149.549 33.333 L 146.076 33.333 L 146.076 0 L 149.826 0 L 149.826 14.965 A 10.387 10.387 0 0 1 153.021 12.951 Q 154.826 12.222 156.875 12.222 Q 159.757 12.222 162.101 13.663 Q 164.444 15.104 165.851 17.535 A 10.553 10.553 0 0 1 167.257 22.917 A 10.553 10.553 0 0 1 165.851 28.299 Q 164.444 30.729 162.101 32.17 Q 159.757 33.611 156.875 33.611 A 9.983 9.983 0 0 1 152.847 32.795 Q 150.972 31.979 149.549 30.59 Z M 93.854 22.431 L 93.854 23.958 L 80.243 23.958 A 24.912 24.912 0 0 1 78.403 23.889 A 23.53 23.53 0 0 1 76.563 23.681 A 7.343 7.343 0 0 0 79.08 28.333 Q 81.215 30.208 84.167 30.208 A 7.733 7.733 0 0 0 87.847 29.306 A 7.77 7.77 0 0 0 90.176 27.449 A 7.446 7.446 0 0 0 90.59 26.91 L 91.632 31.181 A 11.245 11.245 0 0 1 88.392 33.008 A 12.706 12.706 0 0 1 88.212 33.073 Q 86.285 33.75 84.132 33.75 A 12.519 12.519 0 0 1 80.54 33.249 A 10.954 10.954 0 0 1 78.281 32.292 Q 75.694 30.833 74.219 28.316 A 10.841 10.841 0 0 1 72.744 22.901 A 12.831 12.831 0 0 1 72.743 22.708 A 10.527 10.527 0 0 1 73.612 18.425 A 10.217 10.217 0 0 1 74.167 17.344 Q 75.59 14.931 78.003 13.507 A 10.296 10.296 0 0 1 83.333 12.083 Q 86.215 12.083 88.611 13.455 A 10.544 10.544 0 0 1 92.431 17.153 A 9.749 9.749 0 0 1 93.837 21.792 A 11.832 11.832 0 0 1 93.854 22.431 Z M 69.618 15 L 68.472 19.722 A 7.433 7.433 0 0 0 66.326 17.149 A 8.98 8.98 0 0 0 65.851 16.806 A 6.953 6.953 0 0 0 61.884 15.625 A 8.558 8.558 0 0 0 61.875 15.625 A 6.984 6.984 0 0 0 58.212 16.615 A 7.437 7.437 0 0 0 55.59 19.253 A 7.078 7.078 0 0 0 54.618 22.909 A 8.591 8.591 0 0 0 54.618 22.917 Q 54.618 24.896 55.59 26.563 A 7.393 7.393 0 0 0 58.212 29.219 Q 59.861 30.208 61.875 30.208 A 7.352 7.352 0 0 0 64.62 29.703 A 6.938 6.938 0 0 0 65.851 29.063 A 7.219 7.219 0 0 0 68.472 26.111 L 69.618 30.833 A 11.81 11.81 0 0 1 66.513 32.797 A 13.476 13.476 0 0 1 66.146 32.951 A 11.177 11.177 0 0 1 62.051 33.749 A 12.682 12.682 0 0 1 61.91 33.75 A 11.024 11.024 0 0 1 57.557 32.895 A 10.622 10.622 0 0 1 56.354 32.292 Q 53.854 30.833 52.361 28.368 A 10.321 10.321 0 0 1 50.868 22.917 A 10.321 10.321 0 0 1 52.361 17.465 Q 53.854 15 56.354 13.542 Q 58.854 12.083 61.91 12.083 A 11.29 11.29 0 0 1 65.772 12.739 A 10.764 10.764 0 0 1 66.146 12.882 A 12.168 12.168 0 0 1 69.029 14.514 A 11.203 11.203 0 0 1 69.618 15 Z M 114.688 33.333 L 99.896 33.333 L 99.896 2.083 L 103.854 2.083 L 103.854 29.792 L 114.688 29.792 L 114.688 33.333 Z M 42.188 15.243 L 42.188 12.5 L 45.66 12.5 L 45.66 33.333 L 42.188 33.333 L 42.188 30.59 A 10.424 10.424 0 0 1 38.906 32.795 Q 37.014 33.611 34.861 33.611 Q 32.014 33.611 29.653 32.17 A 10.787 10.787 0 0 1 25.885 28.299 Q 24.479 25.868 24.479 22.917 A 10.553 10.553 0 0 1 25.885 17.535 Q 27.292 15.104 29.653 13.663 Q 32.014 12.222 34.861 12.222 A 10.296 10.296 0 0 1 38.906 13.021 A 9.917 9.917 0 0 1 42.187 15.243 Z M 135.938 15.243 L 135.938 12.5 L 139.41 12.5 L 139.41 33.333 L 135.938 33.333 L 135.938 30.59 A 10.424 10.424 0 0 1 132.656 32.795 Q 130.764 33.611 128.611 33.611 Q 125.764 33.611 123.403 32.17 A 10.787 10.787 0 0 1 119.635 28.299 Q 118.229 25.868 118.229 22.917 A 10.553 10.553 0 0 1 119.635 17.535 Q 121.042 15.104 123.403 13.663 Q 125.764 12.222 128.611 12.222 A 10.296 10.296 0 0 1 132.656 13.021 A 9.917 9.917 0 0 1 135.937 15.243 Z M 35.347 30.208 Q 37.326 30.208 38.941 29.219 A 7.387 7.387 0 0 0 41.51 26.58 A 7.152 7.152 0 0 0 42.464 23.042 A 8.425 8.425 0 0 0 42.465 22.917 A 7.321 7.321 0 0 0 41.917 20.074 A 7.029 7.029 0 0 0 41.51 19.253 Q 40.556 17.604 38.941 16.615 A 6.741 6.741 0 0 0 35.347 15.625 A 6.741 6.741 0 0 0 31.753 16.615 A 7.387 7.387 0 0 0 29.184 19.253 A 7.152 7.152 0 0 0 28.23 22.791 A 8.425 8.425 0 0 0 28.229 22.917 A 7.321 7.321 0 0 0 28.778 25.76 A 7.029 7.029 0 0 0 29.184 26.58 Q 30.139 28.229 31.753 29.219 A 6.741 6.741 0 0 0 35.347 30.208 Z M 129.097 30.208 Q 131.076 30.208 132.691 29.219 A 7.387 7.387 0 0 0 135.26 26.58 A 7.152 7.152 0 0 0 136.214 23.042 A 8.425 8.425 0 0 0 136.215 22.917 A 7.321 7.321 0 0 0 135.667 20.074 A 7.029 7.029 0 0 0 135.26 19.253 Q 134.306 17.604 132.691 16.615 A 6.741 6.741 0 0 0 129.097 15.625 A 6.741 6.741 0 0 0 125.503 16.615 A 7.387 7.387 0 0 0 122.934 19.253 A 7.152 7.152 0 0 0 121.98 22.791 A 8.425 8.425 0 0 0 121.979 22.917 A 7.321 7.321 0 0 0 122.528 25.76 A 7.029 7.029 0 0 0 122.934 26.58 Q 123.889 28.229 125.503 29.219 A 6.741 6.741 0 0 0 129.097 30.208 Z M 156.389 30.208 Q 158.368 30.208 159.983 29.219 A 7.387 7.387 0 0 0 162.552 26.58 A 7.152 7.152 0 0 0 163.506 23.042 A 8.425 8.425 0 0 0 163.507 22.917 A 7.321 7.321 0 0 0 162.959 20.074 A 7.029 7.029 0 0 0 162.552 19.253 Q 161.597 17.604 159.983 16.615 A 6.741 6.741 0 0 0 156.389 15.625 A 6.741 6.741 0 0 0 152.795 16.615 A 7.387 7.387 0 0 0 150.226 19.253 A 7.152 7.152 0 0 0 149.272 22.791 A 8.425 8.425 0 0 0 149.271 22.917 A 7.321 7.321 0 0 0 149.819 25.76 A 7.029 7.029 0 0 0 150.226 26.58 Q 151.181 28.229 152.795 29.219 A 6.741 6.741 0 0 0 156.389 30.208 Z M 3.958 5.625 L 3.958 15.625 L 7.847 15.625 A 8.907 8.907 0 0 0 9.198 15.529 Q 10.317 15.357 11.128 14.878 Q 12.396 14.132 13.003 12.969 Q 13.611 11.806 13.611 10.59 A 4.927 4.927 0 0 0 13.275 8.743 A 4.528 4.528 0 0 0 12.031 7.014 A 5.408 5.408 0 0 0 9.622 5.812 A 7.946 7.946 0 0 0 7.847 5.625 L 3.958 5.625 Z M 80.243 20.833 L 87.153 20.833 Q 87.917 20.833 88.663 20.885 Q 89.41 20.938 90.174 21.007 A 6.725 6.725 0 0 0 87.743 16.997 A 6.805 6.805 0 0 0 83.333 15.417 Q 80.799 15.417 78.889 17.101 A 7.685 7.685 0 0 0 77.012 19.536 A 7.339 7.339 0 0 0 76.458 21.146 Q 78.333 20.833 80.243 20.833 Z" vector-effect="non-scaling-stroke"/></g></svg>